<?xml version="1.0" encoding="utf-8"?>
<!-- Generator: Adobe Illustrator 28.2.0, SVG Export Plug-In . SVG Version: 6.00 Build 0)  -->
<svg version="1.1" id="Livello_1" xmlns="http://www.w3.org/2000/svg" xmlns:xlink="http://www.w3.org/1999/xlink" x="0px" y="0px"
	 viewBox="0 0 170.08 170.08" style="enable-background:new 0 0 170.08 170.08;" xml:space="preserve">
<style type="text/css">
	.st0{fill:#54585D;}
</style>
<g>
	<g>
		<path class="st0" d="M84.42,68.56c-7.39,0-10.39,4.79-10.39,13.81v5.61c0,9.3,2.87,14.36,10.39,14.36
			c8.07,0,10.81-4.65,10.81-13.13v-6.84C95.23,72.66,91.95,68.56,84.42,68.56z"/>
	</g>
	<g>
		<path class="st0" d="M85.04,0C38.07,0,0,38.07,0,85.04c0,16.73,4.85,32.31,13.19,45.47l-9.61,28.82
			c-1.48,4.43,2.74,8.65,7.17,7.17l28.82-9.61c13.15,8.34,28.74,13.19,45.47,13.19c46.97,0,85.04-38.07,85.04-85.04
			S132.01,0,85.04,0z M117.66,114.92c-7.66,0-13.95-2.74-17.51-9.16c-2.87,6.16-8.34,9.16-17.78,9.16
			c-15.04,0-22.98-10.53-22.98-25.99v-7.11c0-17.1,9.16-25.85,22.98-25.85c5.61,0,9.71,1.37,12.86,3.69v-3.01h14.5v34.19
			c0,9.16,3.28,11.49,7.8,11.49c6.98,0,9.71-6.57,9.71-18.47c0-30.91-21.06-42.13-42.4-42.13c-30.36,0-41.99,22.98-41.99,43.36
			c0,29.27,19.7,43.22,42.67,43.22c11.9,0,20.38-2.05,30.23-6.98l5.33,10.4c-5.06,3.97-18.19,9.16-36.25,9.16
			c-28.45,0-56.49-19.01-56.49-55.8c0-35.7,26.94-55.94,56.49-55.94c31.32,0,56.9,19.83,56.9,54.71
			C141.73,102.48,133.8,114.92,117.66,114.92z"/>
	</g>
</g>
</svg>
